#!OML:ASF H:\Pregnant\Project 1\Capture day 1\Session 1\femalepreg.ASF
:FULLY-SPECIFIED
:DEGREES
161
root 3.47064 14.6839 10.5867 45.9747 -5.99722 -1.57261
lowerback 11.9721 -1.27643 6.61183
upperback -5.91458 -0.434854 1.06488
thorax -13.3817 -0.731494 -2.44347
lowerneck -54.0121 0.432132 2.04248
upperneck 2.80704 -1.5247 3.06376
head 7.42791 -0.301986 0.673961
rclavicle 9.44227e-016 -4.87022e-015
rhumerus -35.1832 27.0019 -95.5227
rradius 101.288
rwrist -31.7933
rhand -18.4714 -29.2342
rfingers 7.12502
rthumb 7.8154 -59.0698
lclavicle 9.44227e-016 -4.87022e-015
lhumerus -32.0804 -26.1227 90.0739
lradius 98.0517
lwrist 61.6896
lhand -46.3667 12.8281
lfingers 7.12502
lthumb -19.0984 41.9105
rfemur -85.2103 -16.228 25.7424
rtibia 53.8842
rfoot -10.7137 -0.676766
rtoes -17.5934
lfemur -76.279 14.5037 -16.1477
ltibia 42.842
lfoot -6.91574 0.657211
ltoes -26.8318
162
root 3.46746 14.7554 10.6259 45.85 -6.15656 -1.62909
lowerback 11.1059 -1.17706 6.47578
upperback -5.96131 -0.396027 1.06251
thorax -12.894 -0.690088 -2.38696
lowerneck -53.5469 0.44851 2.12631
upperneck 2.93611 -1.53622 3.03189
head 7.45017 -0.30994 0.644232
rclavicle -3.23025e-015 -8.4732e-015
rhumerus -35.3005 27.1243 -95.5402
rradius 100.961
rwrist -31.9989
rhand -18.3739 -29.2485
rfingers 7.12502
rthumb 7.90947 -59.0805
lclavicle -3.23025e-015 -8.4732e-015
lhumerus -32.381 -26.179 90.2499
lradius 97.7243
lwrist 61.8376
lhand -46.3831 12.4691
lfingers 7.12502
lthumb -19.1141 41.5498
rfemur -84.0372 -15.7894 25.2071
rtibia 52.7061
rfoot -10.3498 -1.14332
rtoes -17.8949
lfemur -74.9694 14.3473 -15.8328
ltibia 41.4447
lfoot -6.53189 1.05646
ltoes -27.0076
163
root 3.46457 14.8212 10.6632 45.8183 -6.31773 -1.67843
lowerback 10.1198 -1.07337 6.32621
upperback -6.03906 -0.359029 1.06183
thorax -12.3703 -0.64852 -2.32024
lowerneck -53.0617 0.449278 2.19675
upperneck 3.08259 -1.56235 3.02823
head 7.47773 -0.32035 0.624941
rclavicle 1.87852e-014 -1.29707e-014
rhumerus -35.4319 27.2523 -95.5628
rradius 100.64
rwrist -32.1931
rhand -18.2913 -29.2589
rfingers 7.12502
rthumb 7.98917 -59.0879
lclavicle 1.87852e-014 -1.29707e-014
lhumerus -32.7 -26.2414 90.4338
lradius 97.408
lwrist 61.9836
lhand -46.4063 12.1685
lfingers 7.12502
lthumb -19.1365 41.2471
rfemur -83.0251 -15.3135 24.6604
rtibia 51.6061
rfoot -9.98607 -1.65527
rtoes -18.195
lfemur -73.8124 14.1543 -15.5064
ltibia 40.1245
lfoot -6.15022 1.51432
ltoes -27.188
164
root 3.4617 14.8832 10.6994 45.8345 -6.49091 -1.73118
lowerback 9.06766 -0.965102 6.15988
upperback -6.133 -0.319091 1.06382
thorax -11.8262 -0.604364 -2.24111
lowerneck -52.5686 0.440007 2.26163
upperneck 3.2508 -1.59986 3.04026
head 7.51247 -0.333326 0.610669
rclavicle 7.47927e-015 -8.99501e-015
rhumerus -35.5692 27.3942 -95.5847
rradius 100.324
rwrist -32.377
rhand -18.2172 -29.2747
rfingers 7.12502
rthumb 8.06074 -59.101
lclavicle 7.47927e-015 -8.99501e-015
lhumerus -33.0229 -26.3111 90.6183
lradius 97.0935
lwrist 62.119
lhand -46.424 11.9174
lfingers 7.12502
lthumb -19.1534 40.9943
rfemur -82.0983 -14.7924 24.0909
rtibia 50.5534
rfoot -9.61844 -2.21039
rtoes -18.4805
lfemur -72.7321 13.9339 -15.1506
ltibia 38.8587
lfoot -5.77694 2.04031
ltoes -27.3776
165
root 3.45884 14.9419 10.7349 45.8815 -6.67363 -1.79238
lowerback 7.9732 -0.853646 5.98675
upperback -6.23747 -0.274591 1.065
thorax -11.2702 -0.557997 -2.1589
lowerneck -51.5682 0.340109 2.20214
upperneck 2.8255 -1.6683 3.20786
head 7.673 -0.353996 0.606525
rclavicle -3.21286e-014 7.7526e-015
rhumerus -35.7149 27.5363 -95.6107
rradius 100.017
rwrist -32.5458
rhand -18.1294 -29.3046
rfingers 7.12502
rthumb 8.14548 -59.1276
lclavicle -3.21286e-014 7.7526e-015
lhumerus -33.3459 -26.3895 90.7968
lradius 96.781
lwrist 62.2387
lhand -46.4282 11.7891
lfingers 7.12502
lthumb -19.1575 40.8656
rfemur -81.2281 -14.2272 23.4993
rtibia 49.5324
rfoot -9.24273 -2.80579
rtoes -18.7501
lfemur -71.7036 13.6877 -14.7581
ltibia 37.6394
lfoot -5.40837 2.63062
ltoes -27.5467
